<svg xmlns="http://www.w3.org/2000/svg" xmlns:xlink="http://www.w3.org/1999/xlink" width="756" zoomAndPan="magnify" viewBox="0 0 567 431.249996" height="575" preserveAspectRatio="xMidYMid meet" version="1.0"><defs><clipPath id="7f421bcc31"><path d="M 15.148438 131.496094 L 551.796875 131.496094 L 551.796875 299.011719 L 15.148438 299.011719 Z M 15.148438 131.496094 " clip-rule="nonzero"/></clipPath><clipPath id="2a8ece554a"><path d="M 99.597656 149 L 480.925781 149 L 480.925781 282.503906 L 99.597656 282.503906 Z M 99.597656 149 " clip-rule="nonzero"/></clipPath><clipPath id="29507c0b00"><path d="M 480.828125 282.457031 L 382.308594 208.355469 L 479.101562 149.078125 L 305.71875 149.078125 L 220.914062 201.019531 L 220.914062 149.078125 L 99.992188 149.078125 L 99.992188 282.457031 L 220.914062 282.457031 L 220.914062 213.019531 L 298.523438 282.457031 Z M 480.828125 282.457031 " clip-rule="nonzero"/></clipPath><clipPath id="7b69cdc467"><path d="M 15.148438 309.34375 L 551.796875 309.34375 L 551.796875 415.851562 L 15.148438 415.851562 Z M 15.148438 309.34375 " clip-rule="nonzero"/></clipPath><clipPath id="a72b46d88c"><path d="M 75.679688 333.476562 L 135.289062 333.476562 L 135.289062 401.730469 L 75.679688 401.730469 Z M 75.679688 333.476562 " clip-rule="nonzero"/></clipPath><clipPath id="27f97aea27"><path d="M 75.902344 401.527344 L 75.902344 335.441406 L 93.234375 335.441406 L 93.234375 343.289062 C 95.710938 340.082031 98.625 337.6875 101.988281 336.078125 C 105.351562 334.472656 109.105469 333.671875 113.238281 333.671875 C 120.539062 333.671875 125.996094 335.570312 129.621094 339.355469 C 133.246094 343.136719 135.0625 348.847656 135.0625 356.464844 L 135.0625 401.527344 L 117.371094 401.527344 L 117.371094 361.585938 C 117.371094 356.84375 116.574219 353.460938 114.964844 351.433594 C 113.359375 349.40625 110.765625 348.398438 107.148438 348.398438 C 102.976562 348.398438 99.671875 349.644531 97.238281 352.140625 C 94.800781 354.636719 93.59375 358.03125 93.59375 362.324219 L 93.59375 401.527344 Z M 75.902344 401.527344 " clip-rule="nonzero"/></clipPath><clipPath id="a029256fdb"><path d="M 250.410156 332.109375 L 313.65625 332.109375 L 313.65625 403 L 250.410156 403 Z M 250.410156 332.109375 " clip-rule="nonzero"/></clipPath><clipPath id="908cd61ad4"><path d="M 268.882812 360.707031 L 294.90625 360.707031 C 294.75 356.246094 293.558594 352.851562 291.355469 350.523438 C 289.148438 348.199219 285.972656 347.03125 281.839844 347.03125 C 277.988281 347.03125 274.960938 348.207031 272.746094 350.554688 C 270.53125 352.902344 269.25 356.292969 268.882812 360.707031 M 294.667969 380.644531 L 312.296875 380.644531 C 310.511719 387.621094 306.917969 393.082031 301.507812 397.035156 C 296.097656 400.988281 289.496094 402.964844 281.71875 402.964844 C 272.15625 402.964844 264.570312 399.75 258.980469 393.332031 C 253.390625 386.914062 250.59375 378.207031 250.59375 367.214844 C 250.59375 356.394531 253.347656 347.859375 258.859375 341.621094 C 264.371094 335.378906 271.90625 332.257812 281.480469 332.257812 C 291.613281 332.257812 299.441406 335.332031 304.949219 341.46875 C 310.460938 347.609375 313.214844 356.355469 313.214844 367.707031 C 313.214844 368.964844 313.207031 369.902344 313.1875 370.53125 C 313.167969 371.160156 313.117188 371.757812 313.035156 372.328125 L 268.882812 372.328125 C 269.121094 377.519531 270.390625 381.433594 272.6875 384.058594 C 274.980469 386.683594 278.265625 388.011719 282.570312 388.011719 C 285.613281 388.011719 288.097656 387.410156 290.046875 386.214844 C 291.992188 385.015625 293.53125 383.160156 294.667969 380.652344 " clip-rule="nonzero"/></clipPath><clipPath id="b378b2e7a6"><path d="M 452 325 L 489 325 L 489 410.375 L 452 410.375 Z M 452 325 " clip-rule="nonzero"/></clipPath><clipPath id="51a15e5d28"><path d="M 488.886719 409.734375 C 487.269531 409.773438 485.332031 409.84375 483.074219 409.941406 C 480.820312 410.042969 479.402344 410.09375 478.792969 410.09375 C 472.023438 410.09375 467.390625 408.824219 464.894531 406.289062 C 462.402344 403.753906 461.164062 398.761719 461.164062 391.304688 L 461.164062 355.566406 L 452.398438 355.566406 L 452.398438 343.15625 L 461.152344 343.15625 L 461.152344 325.097656 L 478.664062 325.097656 L 478.664062 343.15625 L 488.875 343.15625 L 488.875 355.566406 L 478.664062 355.566406 L 478.664062 392.164062 C 478.664062 393.910156 479.050781 395.046875 479.820312 395.597656 C 480.589844 396.148438 482.167969 396.417969 484.5625 396.417969 L 488.875 396.417969 Z M 488.886719 409.734375 " clip-rule="nonzero"/></clipPath><clipPath id="ed1b91091a"><path d="M 15.148438 14.65625 L 551.796875 14.65625 L 551.796875 121.152344 L 15.148438 121.152344 Z M 15.148438 14.65625 " clip-rule="nonzero"/></clipPath><clipPath id="e205698469"><path d="M 466.714844 95.65625 L 482.515625 95.65625 L 482.515625 105.480469 L 466.714844 105.480469 Z M 466.714844 95.65625 " clip-rule="nonzero"/></clipPath><clipPath id="c699d3276a"><path d="M 446.546875 95.65625 L 462.351562 95.65625 L 462.351562 105.480469 L 446.546875 105.480469 Z M 446.546875 95.65625 " clip-rule="nonzero"/></clipPath><clipPath id="55fa3be107"><path d="M 26.539062 43.335938 L 244.949219 43.335938 L 244.949219 97.484375 L 26.539062 97.484375 Z M 26.539062 43.335938 " clip-rule="nonzero"/></clipPath><clipPath id="c24d063ac0"><path d="M 225.398438 77.207031 L 215.746094 77.207031 L 215.746094 63.351562 L 196.269531 63.351562 L 196.269531 77.207031 L 55.558594 77.207031 L 53.851562 73.554688 L 67.1875 56.195312 L 67.1875 43.773438 L 48.03125 43.773438 L 26.878906 71.296875 L 38.925781 97.035156 L 244.863281 97.035156 L 244.863281 63.351562 L 225.398438 63.351562 Z M 225.398438 77.207031 " clip-rule="nonzero"/></clipPath><clipPath id="48da9485dc"><path d="M 227.695312 45.28125 L 243.496094 45.28125 L 243.496094 55.105469 L 227.695312 55.105469 Z M 227.695312 45.28125 " clip-rule="nonzero"/></clipPath><clipPath id="d3db8ba361"><path d="M 79.488281 48.257812 L 95.289062 48.257812 L 95.289062 58.082031 L 79.488281 58.082031 Z M 79.488281 48.257812 " clip-rule="nonzero"/></clipPath><clipPath id="8f525cc828"><path d="M 99.796875 48 L 116 48 L 116 58.351562 L 99.796875 58.351562 Z M 99.796875 48 " clip-rule="nonzero"/></clipPath><clipPath id="88a918b431"><path d="M 115.804688 48.257812 L 99.992188 48.257812 L 99.992188 58.082031 L 115.796875 58.082031 Z M 115.804688 48.257812 " clip-rule="nonzero"/></clipPath><clipPath id="5e5e2a1d98"><path d="M 327.761719 40.605469 L 541 40.605469 L 541 102.488281 L 327.761719 102.488281 Z M 327.761719 40.605469 " clip-rule="nonzero"/></clipPath><clipPath id="0dfaa196a1"><path d="M 527.898438 59.367188 L 470.335938 59.367188 L 461.582031 52.070312 L 522.726562 52.070312 L 516.347656 40.941406 L 439.582031 40.941406 L 438.351562 44.875 L 464.71875 66.84375 L 510.078125 66.84375 L 510.078125 72.6875 L 461.0625 72.6875 L 444.421875 58.820312 L 411.179688 58.820312 L 411.179688 88.199219 L 356.441406 88.199219 L 356.441406 76.160156 L 402.605469 76.160156 L 402.605469 58.820312 L 327.972656 58.820312 L 327.972656 102.433594 L 430.886719 102.433594 L 430.886719 79.253906 L 442.496094 88.929688 L 528.65625 88.929688 L 540.738281 76.550781 L 540.738281 72.527344 Z M 527.898438 59.367188 " clip-rule="nonzero"/></clipPath><clipPath id="2849816f3c"><path d="M 264.082031 68.734375 L 300.527344 68.734375 L 300.527344 84.644531 L 264.082031 84.644531 Z M 264.082031 68.734375 " clip-rule="nonzero"/></clipPath></defs><g clip-path="url(#7f421bcc31)"><path fill="#00549b" d="M 10.15625 126.507812 L 556.496094 126.507812 L 556.496094 303.996094 L 10.15625 303.996094 Z M 10.15625 126.507812 " fill-opacity="1" fill-rule="nonzero"/></g><g clip-path="url(#2a8ece554a)"><g clip-path="url(#29507c0b00)"><path fill="#fff200" d="M 10.15625 126.507812 L 556.496094 126.507812 L 556.496094 303.996094 L 10.15625 303.996094 Z M 10.15625 126.507812 " fill-opacity="1" fill-rule="nonzero"/></g></g><g clip-path="url(#7b69cdc467)"><path fill="#00549b" d="M 10.15625 304.355469 L 556.640625 304.355469 L 556.640625 420.839844 L 10.15625 420.839844 Z M 10.15625 304.355469 " fill-opacity="1" fill-rule="nonzero"/></g><g clip-path="url(#a72b46d88c)"><g clip-path="url(#27f97aea27)"><path fill="#ffffff" d="M 10.15625 304.355469 L 556.640625 304.355469 L 556.640625 420.839844 L 10.15625 420.839844 Z M 10.15625 304.355469 " fill-opacity="1" fill-rule="nonzero"/></g></g><g clip-path="url(#a029256fdb)"><g clip-path="url(#908cd61ad4)"><path fill="#ffffff" d="M 10.15625 304.355469 L 556.640625 304.355469 L 556.640625 420.839844 L 10.15625 420.839844 Z M 10.15625 304.355469 " fill-opacity="1" fill-rule="nonzero"/></g></g><g clip-path="url(#b378b2e7a6)"><g clip-path="url(#51a15e5d28)"><path fill="#ffffff" d="M 10.15625 304.355469 L 556.640625 304.355469 L 556.640625 420.839844 L 10.15625 420.839844 Z M 10.15625 304.355469 " fill-opacity="1" fill-rule="nonzero"/></g></g><g clip-path="url(#ed1b91091a)"><path fill="#00549b" d="M 10.15625 9.664062 L 556.636719 9.664062 L 556.636719 126.148438 L 10.15625 126.148438 Z M 10.15625 9.664062 " fill-opacity="1" fill-rule="nonzero"/></g><g clip-path="url(#e205698469)"><path fill="#ffffff" d="M 10.15625 9.664062 L 556.636719 9.664062 L 556.636719 126.148438 L 10.15625 126.148438 Z M 10.15625 9.664062 " fill-opacity="1" fill-rule="nonzero"/></g><g clip-path="url(#c699d3276a)"><path fill="#ffffff" d="M 10.15625 9.664062 L 556.636719 9.664062 L 556.636719 126.148438 L 10.15625 126.148438 Z M 10.15625 9.664062 " fill-opacity="1" fill-rule="nonzero"/></g><g clip-path="url(#55fa3be107)"><g clip-path="url(#c24d063ac0)"><path fill="#ffffff" d="M 10.15625 9.664062 L 556.636719 9.664062 L 556.636719 126.148438 L 10.15625 126.148438 Z M 10.15625 9.664062 " fill-opacity="1" fill-rule="nonzero"/></g></g><g clip-path="url(#48da9485dc)"><path fill="#ffffff" d="M 10.15625 9.664062 L 556.636719 9.664062 L 556.636719 126.148438 L 10.15625 126.148438 Z M 10.15625 9.664062 " fill-opacity="1" fill-rule="nonzero"/></g><g clip-path="url(#d3db8ba361)"><path fill="#ffffff" d="M 10.15625 9.664062 L 556.636719 9.664062 L 556.636719 126.148438 L 10.15625 126.148438 Z M 10.15625 9.664062 " fill-opacity="1" fill-rule="nonzero"/></g><g clip-path="url(#8f525cc828)"><g clip-path="url(#88a918b431)"><path fill="#ffffff" d="M 10.15625 9.664062 L 556.636719 9.664062 L 556.636719 126.148438 L 10.15625 126.148438 Z M 10.15625 9.664062 " fill-opacity="1" fill-rule="nonzero"/></g></g><g clip-path="url(#5e5e2a1d98)"><g clip-path="url(#0dfaa196a1)"><path fill="#ffffff" d="M 10.15625 9.664062 L 556.636719 9.664062 L 556.636719 126.148438 L 10.15625 126.148438 Z M 10.15625 9.664062 " fill-opacity="1" fill-rule="nonzero"/></g></g><g clip-path="url(#2849816f3c)"><path fill="#ffffff" d="M 10.15625 9.664062 L 556.636719 9.664062 L 556.636719 126.148438 L 10.15625 126.148438 Z M 10.15625 9.664062 " fill-opacity="1" fill-rule="nonzero"/></g></svg>